<?xml version='1.0' encoding='utf-8'?>
<svg xmlns="http://www.w3.org/2000/svg" viewBox="0 0 768.33 668.12"> <defs> <filter id="l" color-interpolation-filters="sRGB"> <feGaussianBlur stdDeviation="0.973843"/> </filter> <filter id="j" x="-.15077" y="-.17954" width="1.3015" height="1.3591" color-interpolation-filters="sRGB"> <feGaussianBlur stdDeviation="10.469752"/> </filter> <filter id="k" x="-.14885" y="-.05654" width="1.2977" height="1.1131" color-interpolation-filters="sRGB"> <feGaussianBlur stdDeviation="5.003053"/> </filter> <filter id="i" x="-.17305" y="-.4244" width="1.3461" height="1.8488" color-interpolation-filters="sRGB"> <feGaussianBlur stdDeviation="19.258301"/> </filter> <filter id="m" x="-.13481" y="-.16003" width="1.2696" height="1.3201" color-interpolation-filters="sRGB"> <feGaussianBlur stdDeviation="25.544273"/> </filter> <filter id="h" x="-.16754" y="-.16042" width="1.3351" height="1.3208" color-interpolation-filters="sRGB"> <feGaussianBlur stdDeviation="16.721735"/> </filter> <radialGradient id="a" cx="214.29" cy="526.65" r="61.824" gradientUnits="userSpaceOnUse"> <stop stop-color="#fff" offset="0"/> <stop stop-color="#d8dc13" offset="1"/> </radialGradient> </defs> <path d="m143.06 473.45s-96.981-5.233-120.57 36.631c-23.59 41.864 49.801-5.233 68.149 31.398s34.074 36.631 52.422 23.548c18.348-13.082 60.286-26.165 62.907 2.6165 2.6211 28.782 136.3-68.029 115.33-91.578-20.969-23.548-60.286-34.014-60.286-34.014l-117.95 31.398z" fill="#b8f88e" stroke="#000" stroke-width="11.958"/> <path d="m157.43 470.83s-77.741-3.0245-96.651 21.172 39.921-3.0246 54.629 18.147 27.314 21.172 42.022 13.61c14.708-7.5614 48.326-15.123 50.427 1.5122 2.1011 16.635 109.26-39.319 92.449-52.929-16.809-13.61-48.326-19.659-48.326-19.659l-94.55 18.147z" fill="#6fdd25" filter="url(#i)"/> <g stroke="#000"> <path d="m143.06 473.45s-96.981-5.233-120.57 36.631c-23.59 41.864 49.801-5.233 68.149 31.398s34.074 36.631 52.422 23.548c18.348-13.082 60.286-26.165 62.907 2.6165 2.6211 28.782 136.3-68.029 115.33-91.578-20.969-23.548-60.286-34.014-60.286-34.014l-117.95 31.398z" fill="none" stroke-width="11.958"/> <path d="m277.45 490.96s-4.136-14.369-13.102-36.548c-8.9664-22.179-22.763-52.168-42.084-83.407-19.321-31.24-44.167-63.73-75.232-90.913s-68.348-49.057-112.54-59.065c-8.1323 0.922-17.124 60.63-17.818 69.751 0 0-27.645 202.98 257.32 202.89l3.4586-2.7098z" fill="#b6f78b" stroke-width="9.857"/> </g> <path d="m256.56 478.4s-55.608-193.19-204.16-226.82c0 0 3.4034 37.183-14.972 58.612 0 0-23.23 170.56 216.23 170.49l2.9063-2.277z" fill="#6fdd25" filter="url(#h)"/> <g stroke="#000"> <g fill="none" stroke-linecap="round"> <path d="m61.801 298.15s26.211 141.29 159.89 167.46" stroke-width="10.675"/> <path d="m80.148 528.4s36.696-26.165 86.497-28.782" stroke-width="8.884"/> <path d="m194.89 551.23s19.402-22.475 45.734-24.722" stroke-width="8.49"/> </g> <path d="m625.28 473.45s96.981-5.233 120.57 36.631c23.59 41.864-49.801-5.233-68.149 31.398s-34.074 36.631-52.422 23.548c-18.348-13.082-60.286-26.165-62.907 2.6165-2.6211 28.782-136.3-68.029-115.33-91.578 20.969-23.548 60.286-34.014 60.286-34.014l117.95 31.398z" fill="#b8f88e" stroke-width="11.958"/> </g> <path d="m610.9 470.83s77.741-3.0245 96.651 21.172-39.921-3.0246-54.629 18.147-27.314 21.172-42.022 13.61c-14.708-7.5614-48.326-15.123-50.427 1.5122-2.1011 16.635-109.26-39.319-92.449-52.929 16.809-13.61 48.326-19.659 48.326-19.659l94.55 18.147z" fill="#6fdd25" filter="url(#i)"/> <g stroke="#000"> <path d="m625.28 473.45s96.981-5.233 120.57 36.631c23.59 41.864-49.801-5.233-68.149 31.398s-34.074 36.631-52.422 23.548c-18.348-13.082-60.286-26.165-62.907 2.6165-2.6211 28.782-136.3-68.029-115.33-91.578 20.969-23.548 60.286-34.014 60.286-34.014l117.95 31.398z" fill="none" stroke-width="11.958"/> <path d="m490.89 490.96s4.136-14.369 13.102-36.548c8.9663-22.179 22.763-52.168 42.084-83.407 19.321-31.24 44.167-63.73 75.232-90.913s68.348-49.057 112.54-59.065c8.1323 0.922 17.123 60.63 17.818 69.751 0 0 27.645 202.98-257.32 202.89l-3.4586-2.7098z" fill="#b6f78b" stroke-width="9.857"/> </g> <path d="m511.77 478.4s55.608-193.19 204.16-226.82c0 0-3.4033 37.183 14.972 58.612 0 0 23.23 170.56-216.23 170.49l-2.9063-2.277z" fill="#6fdd25" filter="url(#h)"/> <g stroke="#000"> <g fill="none" stroke-linecap="round"> <path d="m706.53 298.15s-26.211 141.29-159.89 167.46" stroke-width="10.675"/> <path d="m688.18 528.4s-36.696-26.165-86.497-28.782" stroke-width="8.884"/> <path d="m581.31 552.54s-19.402-22.475-45.734-24.722" stroke-width="8.49"/> </g> <path d="m627.96 275.91c0.56665 111.93-141.84 202.78-235.9 202.78-92.598 0-246.38-98.694-246.38-210.63 0-111.93 153.79-194.93 246.38-194.93 92.598 0 235.9 90.845 235.9 202.78z" fill="#cfa" stroke-width="9.025"/> </g> <path d="m593.99 271.98c0 96.827-123.96 175.41-204.06 175.41-80.101 0-213.13-85.375-213.13-182.2 0-96.827 133.03-168.62 213.13-168.62 80.101 0 204.06 78.584 204.06 175.41z" fill="#55d400" filter="url(#m)" opacity=".781"/> <path d="m263.58 234.26c-0.63724-7.0518 128.99 179.14 258.72-1.745" fill="none" stroke="#000" stroke-linecap="round" stroke-width="8.716"/> <path d="m378.95 206.7a11.14 5.8871 0 1 1-22.279 0 11.14 5.8871 0 1 1 22.279 0z"/> <path d="m432.69 208.01a11.14 5.8871 0 1 1-22.279 0 11.14 5.8871 0 1 1 22.279 0z"/> <path d="m274.51 533.11c4.0432 20.893-35.234 30.109-43.984 38.652-8.7502 8.5432-13.573 19.964-5.6159 30.421 30.603 40.22 33.741-14.219 47.015-26.718 17.1-16.101 25.329 4.094 18.992 14.878 0 0-42.378 43.551-8.291 54.742 34.088 11.191 35.102-74.696 35.102-74.696 3.5469-5.2839 15.85-13.859 16.41 0.62408 0.65933 17.081-9.5885 49.678 15.819 53.779 12.965 2.0923 28.898-14.272 26.414-25.356-2.4834-11.085-13.882-25.374-25.974-35.844-10.127-8.7681-9.4985-8.4756-14.131-22.678" fill="#bdf995"/> <path d="m240.63 380.5c-2.9981 3.2889-2.9252-1.701 0.41179 4.0799 10.108 26.676 11.939 22.789 18.584 52.031 0.55731 45.323 8.3531 81.112 8.3531 81.112l6.3512 17.963s32.299 52.403 58.205 39.754 3.384-47.124 1.2383-96.807c-0.62766-14.533 5.1434-41.753 6.9218-65.519 0.88916-11.883-3.0601-15.278-6.4019-23.791" fill="#bdfa93"/> <path d="m341.04 549.84c-2.9723-16.535-2.9642-36.774-4.0371-61.615-0.62766-14.533-0.096008-42.18 1.6823-65.946 0.88916-11.883 0.46829-23.027-2.8734-31.54m-95.034 3.2545c13.637 23.153 10.686 22.472 14.229 49.4-2.2398 33.575 16.96 98.24 16.96 98.24" fill="#b9f88f" stroke="#000" stroke-linecap="round" stroke-width="7.931"/> <path d="m314.44 535.39s-23.398-0.85742-44.162 16.17c-18.896 15.497-51.985 32.787-40.937 53.237 11.789 21.821 59.254-33.764 59.254-33.764l-11.525 44.682s-24.204 22.74 5.6951 32.689 38.442-79.019 38.442-79.019l9.7007 44.129s31.214 19.44 51.539-8.2824c12.273-16.739-54.087-63.718-54.087-63.718l-13.921-6.1245z" fill="#6fdd25" filter="url(#j)"/> <path d="m274.09 543.61c-15.444 5.9044-37.59 17.149-47.037 26.498-9.4472 9.3485-13.658 20.488-5.0678 31.931 33.041 44.012 37.197-8.2726 51.528-21.949 18.462-17.619 19.886 0.52179 13.044 12.322 0 0-42.898 41.074-6.0955 53.32 36.803 12.246 38.144-72.153 38.144-72.153 3.8294-5.782 13.782-8.3024 14.385 7.546 0.71185 18.691-12.777 42.954 14.655 47.441 13.998 2.2896 34.458-16.523 31.776-28.653-2.6813-12.13-14.988-24.093-28.043-35.549-10.934-9.5947-6.8386-9.2166-11.84-24.758" fill="none" stroke="#000" stroke-linecap="round" stroke-width="7.931"/> <g fill="#71dd27"> <path d="m255.26 361.05c-2.2467 3.2632-18.74 11.034-16.24 16.77-1.0719 13.815 27.579 19.373 27.109 48.386-1.6784 33.313 10.568 97.613 10.568 97.613l-1.996 4.9811s7.3605 53.511 39.879 38.21c20.806-9.7896 17.078-32.37 10.228-89.918-1.7042-14.316 3.7281-32.431 5.0607-56.012 0.66629-11.79 2.972-40.727 0.46786-49.173" filter="url(#k)"/> <path d="m274.51 533.11c4.0432 20.893-35.234 30.109-43.984 38.652-8.7501 8.543-9.6567 17.726-1.6999 28.184 30.603 40.22 26.469-12.541 39.742-25.039 17.1-16.101 21.413 7.4506 15.076 18.234 0 0-31.749 29.565 2.3381 40.756 34.088 11.191 23.354-62.948 23.354-62.948 3.5468-5.2839 24.242-14.418 24.801 0.06488 0.65933 17.081-9.5885 49.678 15.819 53.779 12.965 2.0922 22.185-13.712 19.701-24.797-2.4834-11.085-13.882-22.018-25.974-32.487-10.127-8.7679-7.2608-13.51-11.893-27.713" filter="url(#l)"/> </g> <g stroke="#000"> <g stroke-linecap="round"> <path d="m270.36 543.17c-14.437 10.932-33.772 18.037-43.309 26.939-9.7164 9.0694-13.658 20.488-5.0677 31.93 33.041 44.012 37.197-8.2725 51.528-21.949 18.462-17.619 19.886 0.52185 13.044 12.322 0 0-42.898 41.074-6.0955 53.32 36.803 12.246 37.484-56.406 38.144-72.153 0.2904-6.9253 13.782-8.3024 14.385 7.546 0.71185 18.691-12.777 42.954 14.655 47.441 13.998 2.2896 34.457-16.523 31.776-28.653-2.6812-12.13-17.014-22.132-28.043-35.549-9.2662-11.273-11.644-9.2166-11.84-24.758" fill="none" stroke-width="7.931"/> <path d="m341.05 549.85c-2.9731-16.421-2.965-36.521-4.0382-61.192-0.62781-14.433-0.096008-41.89 1.6827-65.493 0.88944-11.802 0.46844-22.869-2.8742-31.323m-94.353 0.4337c12.963 31.185 10.896 28.494 14.233 49.061-2.2404 33.344 16.258 100.36 16.258 100.36" fill="#b9f88f" stroke-width="7.905"/> </g> <path d="m517.39 64.048a55.043 54.946 0 1 1-110.09 0 55.043 54.946 0 1 1 110.09 0z" fill="url(#a)" stroke-width="12"/> </g> <path d="m473.38 79.643a23.59 23.548 0 1 1-47.18 0 23.59 23.548 0 1 1 47.18 0z"/> <path d="m371.68 64.431a55.043 54.946 0 1 1-110.09 0 55.043 54.946 0 1 1 110.09 0z" fill="url(#a)" stroke="#000" stroke-width="12.421"/> <path d="m349.23 80.98a23.59 23.548 0 1 1-47.18 0 23.59 23.548 0 1 1 47.18 0z"/> <path d="m495.59 533.11c-4.0432 20.893 35.234 30.109 43.984 38.652 8.7502 8.5432 13.573 19.964 5.6159 30.421-30.603 40.22-33.741-14.219-47.015-26.718-17.1-16.101-25.329 4.094-18.992 14.878 0 0 42.378 43.551 8.291 54.742-34.088 11.191-35.102-74.696-35.102-74.696-3.5468-5.2839-15.85-13.859-16.41 0.62408-0.65933 17.081 9.5885 49.678-15.819 53.779-12.966 2.0923-28.898-14.272-26.414-25.356 2.4834-11.085 13.882-25.374 25.974-35.844 10.127-8.7681 9.4985-8.4756 14.131-22.678" fill="#bdf995"/> <path d="m529.46 380.5c2.9982 3.2889 2.9252-1.701-0.4118 4.0799-10.108 26.676-11.939 22.789-18.584 52.031-0.55734 45.323-8.3531 81.112-8.3531 81.112l-6.3512 17.963s-32.299 52.403-58.205 39.754-3.3841-47.124-1.2383-96.807c0.62769-14.533-5.1434-41.753-6.9217-65.519-0.88919-11.883 3.0601-15.278 6.4018-23.791" fill="#bdfa93"/> <path d="m429.06 549.84c2.9723-16.535 2.9642-36.774 4.0371-61.615 0.62762-14.533 0.095978-42.18-1.6823-65.946-0.88916-11.883-0.46829-23.027 2.8734-31.54m95.034 3.2545c-13.637 23.153-10.686 22.472-14.229 49.4 2.2398 33.575-16.96 98.24-16.96 98.24" fill="#b9f88f" stroke="#000" stroke-linecap="round" stroke-width="7.931"/> <path d="m455.65 535.39s23.398-0.85742 44.162 16.17c18.896 15.497 51.985 32.787 40.937 53.237-11.789 21.821-59.254-33.764-59.254-33.764l11.525 44.682s24.204 22.74-5.6951 32.689-38.442-79.019-38.442-79.019l-9.7007 44.129s-31.214 19.44-51.539-8.2824c-12.273-16.739 54.087-63.718 54.087-63.718l13.921-6.1245z" fill="#6fdd25" filter="url(#j)"/> <path d="m496 543.61c15.444 5.9044 37.59 17.149 47.037 26.498 9.4471 9.3485 13.658 20.488 5.0678 31.931-33.041 44.012-37.197-8.2726-51.528-21.949-18.462-17.619-19.886 0.52179-13.044 12.322 0 0 42.898 41.074 6.0955 53.32-36.803 12.246-38.144-72.153-38.144-72.153-3.8294-5.782-13.782-8.3024-14.385 7.546-0.71182 18.691 12.777 42.954-14.655 47.441-13.998 2.2896-34.458-16.523-31.776-28.653 2.6813-12.13 14.988-24.093 28.043-35.549 10.934-9.5947 6.8386-9.2166 11.84-24.758" fill="none" stroke="#000" stroke-linecap="round" stroke-width="7.931"/> <g fill="#71dd27"> <path d="m514.83 361.05c2.2467 3.2632 18.74 11.034 16.24 16.77 1.0719 13.815-27.579 19.373-27.109 48.386 1.6784 33.313-10.568 97.613-10.568 97.613l1.9959 4.9811s-7.3605 53.511-39.879 38.21c-20.806-9.7896-17.078-32.37-10.228-89.918 1.7042-14.316-3.7281-32.431-5.0607-56.012-0.66629-11.79-2.972-40.727-0.46783-49.173" filter="url(#k)"/> <path d="m495.59 533.11c-4.0432 20.893 35.234 30.109 43.984 38.652 8.7502 8.543 9.6567 17.726 1.6999 28.184-30.603 40.22-26.469-12.541-39.742-25.039-17.1-16.101-21.413 7.4506-15.076 18.234 0 0 31.749 29.565-2.3381 40.756-34.088 11.191-23.354-62.948-23.354-62.948-3.5468-5.2839-24.242-14.418-24.801 0.06488-0.65933 17.081 9.5885 49.678-15.819 53.779-12.966 2.0922-22.185-13.712-19.701-24.797 2.4835-11.085 13.882-22.018 25.974-32.487 10.127-8.7679 7.2608-13.51 11.893-27.713" filter="url(#l)"/> </g> <g stroke="#000"> <g stroke-linecap="round"> <path d="m499.73 543.17c14.437 10.932 33.772 18.037 43.309 26.939 9.7164 9.0694 13.658 20.488 5.0678 31.93-33.041 44.012-37.197-8.2725-51.528-21.949-18.462-17.619-19.886 0.52185-13.044 12.322 0 0 42.898 41.074 6.0955 53.32-36.803 12.246-37.484-56.406-38.144-72.153-0.2904-6.9253-13.782-8.3024-14.385 7.546-0.71182 18.691 12.777 42.954-14.655 47.441-13.998 2.2896-34.458-16.523-31.776-28.653 2.6813-12.13 17.014-22.132 28.043-35.549 9.2662-11.273 11.644-9.2166 11.84-24.758" fill="none" stroke-width="7.931"/> <path d="m429.04 549.85c2.9731-16.421 2.965-36.521 4.0382-61.192 0.62781-14.433 0.096008-41.89-1.6827-65.493-0.88944-11.802-0.46844-22.869 2.8742-31.323m94.353 0.4337c-12.963 31.185-10.896 28.494-14.233 49.061 2.2404 33.344-16.258 100.36-16.258 100.36" fill="#b9f88f" stroke-width="7.905"/> </g> <rect x="373.67" y="62.876" width="30" height="2" fill="url(#a)" stroke-linecap="null" stroke-linejoin="null" stroke-width="12"/> </g> </svg>